<?xml version="1.0" encoding="UTF-8" standalone="no"?> <svg xmlns="http://www.w3.org/2000/svg" viewBox="0 0 32 32"><defs><style>.cls-1{fill:none;}.cls-2{fill:#2e3192;}.cls-3{fill:#ff931e;}</style></defs><title>Bin, trash</title><g id="_01" data-name="01"><path class="cls-1" d="M18.727,21.5a.909.909,0,0,0,.909-.909V16.045a.909.909,0,0,0-1.818,0v4.546A.909.909,0,0,0,18.727,21.5Z"/><path class="cls-1" d="M13.273,21.5a.909.909,0,0,0,.909-.909V16.045a.909.909,0,0,0-1.818,0v4.546A.909.909,0,0,0,13.273,21.5Z"/><path class="cls-1" d="M16,5.136a3.641,3.641,0,0,0-3.636,3.637h7.272A3.641,3.641,0,0,0,16,5.136Z"/><path class="cls-2" d="M8.727,27.864a1.818,1.818,0,0,0,1.818,1.818h10.91a1.818,1.818,0,0,0,1.818-1.818V12.409H8.727Zm9.091-10a.909.909,0,0,1,1.818,0v4.545a.909.909,0,1,1-1.818,0Zm-5.454,0a.909.909,0,0,1,1.818,0v4.545a.909.909,0,1,1-1.818,0Z"/><path class="cls-3" d="M26,9.682a.909.909,0,0,0-.909-.909H21.455a5.455,5.455,0,1,0-10.91,0H6.909a.909.909,0,0,0,0,1.818H25.091A.909.909,0,0,0,26,9.682ZM12.364,8.773a3.636,3.636,0,1,1,7.272,0Z"/></g></svg>